<?xml version="1.0" standalone="no"?>
<!DOCTYPE svg PUBLIC "-//W3C//DTD SVG 1.0//EN" "http://www.w3.org/TR/2001/REC-SVG-20010904/DTD/svg10.dtd">
<svg xmlns="http://www.w3.org/2000/svg" xmlns:xlink="http://www.w3.org/1999/xlink" id="body_1" width="940" height="1349">

<g transform="matrix(1.4992026 0 0 1.4988889 0 0)">
	<g transform="matrix(0.70291483 0 0 0.70291483 -0 0.26908457)">
		<g transform="matrix(0.1 0 -0 -0.1 0 1280)">
            <path d="M4436 12728C 4423 12560 4417 12032 4429 11939C 4441 11831 4456 11780 4475 11780C 4494 11780 4582 11880 4607 11931C 4628 11973 4684 12109 4737 12250C 4782 12368 4850 12616 4865 12721L4865 12721L4872 12768L4823 12774C 4777 12780 4507 12800 4464 12800C 4444 12800 4442 12793 4436 12728z" stroke="none" fill="#FFFFFF" fill-rule="nonzero" />
            <path d="M2080 11721C 2039 11705 1965 11675 1915 11653C 1866 11631 1813 11610 1798 11606C 1782 11603 1770 11595 1770 11589C 1770 11574 1862 11439 1965 11305C 2016 11239 2067 11167 2078 11144C 2105 11091 2228 10925 2342 10788C 2461 10644 2480 10643 2450 10780C 2440 10827 2415 10947 2395 11048C 2376 11149 2346 11274 2329 11326C 2313 11378 2283 11477 2264 11547C 2222 11703 2212 11728 2189 11740C 2165 11753 2166 11753 2080 11721z" stroke="none" fill="#FFFFFF" fill-rule="nonzero" />
            <path d="M7619 11013C 7589 10981 7519 10906 7464 10845C 7410 10785 7233 10596 7071 10425C 6747 10084 6670 9996 6670 9967C 6670 9952 6673 9950 6683 9959C 6691 9965 6756 9990 6828 10015C 6906 10042 7049 10104 7179 10170C 7432 10296 7850 10497 7930 10530C 8008 10563 8011 10566 7996 10598C 7913 10773 7859 10870 7818 10914C 7791 10942 7770 10969 7770 10975C 7770 10991 7701 11070 7686 11070C 7680 11070 7650 11044 7619 11013z" stroke="none" fill="#FFFFFF" fill-rule="nonzero" />
            <path d="M3863 10880C 3824 10864 3804 10735 3835 10694C 3843 10684 3850 10653 3850 10627C 3850 10600 3855 10570 3860 10559C 3886 10512 3970 9909 3970 9773C 3970 9652 3950 9631 3795 9591C 3662 9557 3606 9534 3447 9449C 3155 9293 3062 9221 2800 8953C 2520 8668 2412 8488 2353 8211C 2340 8148 2324 8090 2317 8082C 2301 8062 2294 7695 2309 7614C 2323 7540 2374 7431 2448 7320C 2517 7217 2694 7035 2810 6950C 2932 6860 3236 6715 3468 6636C 3571 6601 3680 6562 3710 6550C 3740 6538 3868 6502 3993 6469C 4119 6437 4236 6402 4254 6390C 4272 6379 4297 6370 4309 6370C 4336 6370 4409 6334 4501 6274C 4540 6250 4671 6180 4793 6119C 5014 6009 5142 5932 5211 5868C 5266 5818 5344 5718 5369 5667C 5398 5607 5394 5516 5356 5370C 5321 5235 5284 5160 5245 5140C 5229 5132 5182 5106 5142 5083C 5102 5059 5063 5040 5056 5040C 5049 5040 5031 5031 5017 5020C 4968 4981 4871 4966 4660 4967C 4434 4967 4325 4982 4180 5034C 3779 5178 3750 5190 3297 5416C 3105 5512 2941 5590 2932 5590C 2907 5590 2858 5552 2814 5496C 2688 5338 2484 4997 2393 4791C 2358 4711 2323 4639 2315 4630C 2307 4621 2300 4600 2300 4583C 2300 4566 2294 4534 2286 4512L2286 4512L2271 4471L2383 4382C 2591 4218 2625 4193 2722 4126C 2776 4090 2831 4058 2844 4054C 2857 4051 2873 4037 2881 4024C 2888 4010 2905 3997 2919 3994C 2966 3985 3234 3877 3332 3828C 3386 3802 3475 3762 3530 3740C 3584 3718 3658 3687 3692 3671C 3727 3656 3798 3635 3850 3626C 3986 3601 3980 3603 3980 3566C 3980 3548 3967 3435 3951 3314C 3934 3194 3912 3012 3900 2910C 3889 2808 3875 2707 3869 2685C 3847 2601 3841 2563 3840 2510C 3840 2480 3833 2419 3826 2375C 3818 2331 3809 2255 3806 2205C 3802 2156 3797 2096 3794 2074L3794 2074L3789 2032L3987 2026C 4471 2010 4931 1987 4983 1977C 5005 1972 4973 2690 4939 2975C 4933 3025 4917 3108 4903 3160C 4888 3218 4880 3269 4883 3292C 4886 3312 4882 3346 4874 3367C 4860 3407 4855 3590 4868 3590C 4901 3590 5303 3623 5369 3631C 5415 3636 5470 3650 5491 3660C 5512 3671 5587 3701 5657 3726C 5829 3788 5877 3811 5996 3880C 6051 3913 6101 3940 6107 3940C 6113 3940 6131 3955 6148 3974C 6164 3993 6186 4011 6197 4014C 6216 4020 6382 4187 6447 4266C 6485 4312 6611 4528 6652 4618C 6698 4719 6739 4851 6751 4935C 6757 4978 6769 5024 6778 5038C 6793 5060 6795 5095 6794 5284C 6794 5494 6793 5509 6767 5590C 6753 5637 6725 5733 6706 5803C 6646 6020 6597 6124 6487 6274C 6411 6378 6162 6626 6086 6675C 6054 6695 6011 6727 5991 6745C 5971 6763 5942 6784 5925 6793C 5909 6801 5848 6838 5790 6875C 5591 7002 5151 7205 5024 7229C 4999 7234 4972 7245 4962 7253C 4941 7272 4832 7302 4683 7330C 4430 7377 4157 7500 4054 7613C 3972 7703 3955 7747 3955 7870C 3955 7963 3958 7981 3981 8030C 4023 8118 4120 8202 4258 8270C 4389 8335 4594 8368 4780 8356C 4894 8348 5107 8314 5158 8295C 5241 8264 5488 8152 5532 8124C 5558 8108 5618 8070 5666 8040C 5714 8010 5782 7957 5817 7923C 5883 7857 5901 7850 5937 7875C 5994 7915 6156 8212 6210 8376C 6228 8430 6253 8496 6266 8522C 6291 8571 6343 8746 6353 8815C 6361 8867 6341 8901 6269 8957C 6197 9012 6040 9110 6023 9110C 6016 9110 6010 9114 6010 9120C 6010 9136 5966 9160 5872 9195C 5768 9234 5472 9381 5382 9439C 5348 9462 5313 9480 5305 9480C 5297 9480 5230 9496 5156 9515C 5007 9553 4939 9583 4880 9637C 4840 9672 4840 9673 4840 9748C 4840 9789 4847 9886 4856 9964C 4871 10100 4881 10156 4913 10305C 4944 10446 4976 10766 4961 10789C 4955 10799 4922 10806 4863 10811C 4815 10815 4760 10823 4741 10829C 4722 10835 4596 10846 4461 10855C 4326 10863 4154 10875 4080 10880C 3921 10892 3892 10892 3863 10880z" stroke="none" fill="#FFFFFF" fill-rule="nonzero" />
            <path d="M702 9740C 690 9735 678 9725 675 9718C 643 9625 623 9583 605 9564C 572 9532 451 9282 444 9233C 439 9198 441 9189 455 9183C 465 9180 539 9184 619 9193C 870 9222 1000 9231 1287 9238C 1440 9242 1571 9249 1578 9253C 1584 9258 1590 9271 1590 9283C 1590 9312 1470 9426 1430 9435C 1414 9439 1395 9450 1390 9461C 1384 9471 1372 9480 1362 9480C 1353 9480 1320 9491 1290 9504C 1127 9574 986 9640 910 9682C 834 9723 763 9751 735 9749C 730 9749 715 9745 702 9740z" stroke="none" fill="#FFFFFF" fill-rule="nonzero" />
            <path d="M8538 9005C 8474 8992 8375 8966 8318 8946C 8261 8926 8147 8891 8064 8867C 7982 8842 7870 8804 7816 8781C 7763 8758 7698 8737 7672 8733C 7546 8716 7493 8652 7569 8607C 7650 8560 7855 8537 8533 8499C 8734 8488 8753 8488 8768 8504C 8783 8519 8785 8549 8785 8759C 8785 8946 8782 9000 8771 9013C 8752 9036 8682 9034 8538 9005z" stroke="none" fill="#FFFFFF" fill-rule="nonzero" />
            <path d="M8405 7149C 8383 7145 8256 7129 8124 7115C 7991 7101 7864 7083 7841 7075C 7817 7067 7764 7056 7722 7051C 7636 7040 7620 7028 7620 6969C 7620 6928 7633 6920 7702 6920C 7723 6920 7761 6912 7787 6901C 7813 6891 7932 6855 8051 6821C 8169 6788 8295 6750 8331 6736C 8427 6700 8872 6609 8886 6622C 8892 6628 8908 6796 8916 6937C 8926 7113 8916 7129 8785 7150C 8714 7162 8462 7161 8405 7149z" stroke="none" fill="#FFFFFF" fill-rule="nonzero" />
            <path d="M760 6843C 206 6784 47 6761 20 6735C 8 6722 5 6690 6 6542C 8 6294 36 6165 94 6139C 127 6124 144 6134 346 6290C 434 6358 534 6432 570 6455C 606 6478 721 6553 827 6623C 933 6692 1053 6765 1095 6786C 1136 6806 1170 6826 1170 6830C 1170 6834 1160 6840 1148 6844C 1124 6850 821 6850 760 6843z" stroke="none" fill="#FFFFFF" fill-rule="nonzero" />
            <path d="M7667 5123C 7655 5112 7659 5070 7675 5040C 7683 5024 7719 4989 7753 4963C 7788 4936 7847 4889 7886 4857C 7924 4825 7984 4778 8020 4751C 8093 4698 8312 4466 8414 4336C 8483 4247 8526 4210 8557 4210C 8583 4211 8721 4400 8777 4513C 8792 4541 8813 4573 8825 4582C 8840 4594 8846 4607 8843 4623C 8840 4637 8845 4652 8854 4659C 8881 4681 8872 4708 8828 4741C 8759 4791 8558 4883 8375 4950C 8282 4983 8166 5027 8119 5045C 8056 5071 7991 5086 7867 5105C 7686 5132 7677 5133 7667 5123z" stroke="none" fill="#FFFFFF" fill-rule="nonzero" />
            <path d="M996 3890C 970 3885 918 3864 881 3843C 845 3822 795 3796 770 3785C 745 3774 562 3683 363 3582C 88 3443 0 3394 0 3381C 0 3347 49 3167 65 3144C 74 3129 78 3110 74 3095C 70 3077 72 3068 85 3064C 94 3060 111 3037 121 3012C 162 2917 236 2851 282 2869C 337 2890 524 3079 560 3150C 572 3173 606 3218 636 3251C 666 3283 690 3315 690 3321C 690 3327 745 3389 813 3458C 880 3528 954 3607 975 3635C 997 3662 1042 3715 1075 3751C 1143 3825 1168 3866 1154 3880C 1140 3894 1051 3900 996 3890z" stroke="none" fill="#FFFFFF" fill-rule="nonzero" />
            <path d="M6497 2513C 6485 2502 6489 2446 6506 2389C 6531 2306 6594 2188 6690 2045C 6827 1841 6846 1809 6971 1569C 7154 1217 7157 1214 7205 1260C 7217 1272 7241 1289 7258 1298C 7296 1319 7364 1399 7391 1453C 7403 1476 7444 1539 7482 1593C 7523 1651 7548 1695 7544 1703C 7516 1751 7375 1901 7256 2008C 7006 2234 6873 2339 6775 2386C 6742 2402 6677 2436 6630 2462C 6537 2512 6507 2524 6497 2513z" stroke="none" fill="#FFFFFF" fill-rule="nonzero" />
            <path d="M1904 2315C 1900 2307 1889 2300 1879 2300C 1867 2300 1855 2288 1847 2268C 1839 2250 1811 2206 1784 2170C 1757 2134 1685 2040 1624 1960C 1564 1880 1481 1775 1441 1725C 1400 1676 1360 1619 1352 1600C 1344 1581 1318 1547 1294 1525C 1254 1488 1060 1181 1060 1154C 1060 1133 1096 1111 1257 1032C 1432 946 1522 920 1573 939C 1615 955 1654 1049 1710 1272C 1765 1488 1769 1503 1834 1682C 1859 1753 1891 1856 1905 1912C 1920 1969 1940 2044 1951 2079C 1975 2158 1977 2276 1954 2308C 1937 2333 1912 2337 1904 2315z" stroke="none" fill="#FFFFFF" fill-rule="nonzero" />
            <path d="M4166 921C 4153 900 4110 475 4084 97L4084 97L4077 -1L4121 6C 4258 25 4347 43 4373 57C 4391 66 4414 70 4432 66C 4476 57 4510 95 4510 153C 4510 231 4443 443 4368 600C 4340 658 4310 729 4299 758C 4280 813 4254 857 4212 903C 4185 931 4175 936 4166 921z" stroke="none" fill="#FFFFFF" fill-rule="nonzero" />
		</g>
	</g>
</g>
</svg>