<?xml version="1.0" standalone="no"?>
<!DOCTYPE svg PUBLIC "-//W3C//DTD SVG 1.0//EN" "http://www.w3.org/TR/2001/REC-SVG-20010904/DTD/svg10.dtd">
<svg xmlns="http://www.w3.org/2000/svg" xmlns:xlink="http://www.w3.org/1999/xlink" id="body_1" width="981" height="1350">

<g transform="matrix(1.5 0 0 1.5 0 0)">
	<g transform="matrix(0.703125 0 0 0.703125 0.09377003 -0)">
		<g transform="matrix(0.1 0 -0 -0.1 0 1280)">
            <path d="M4335 12789C 2839 12685 1492 11874 700 10599C 468 10226 286 9812 171 9395C -134 8288 -26 7117 476 6100C 667 5713 848 5440 1152 5080C 1186 5039 1905 4104 2748 3003C 3666 1804 4303 981 4336 951C 4522 781 4778 781 4964 951C 4997 981 5634 1804 6552 3003C 7395 4104 8114 5039 8148 5080C 8452 5440 8633 5713 8824 6100C 9390 7247 9453 8602 8998 9795C 8645 10718 8031 11484 7200 12037C 6375 12586 5336 12858 4335 12789zM4894 10535C 5118 10506 5292 10454 5495 10355C 6048 10087 6426 9599 6557 8981C 6582 8865 6584 8836 6585 8615C 6585 8348 6575 8270 6515 8060C 6354 7499 5929 7028 5385 6807C 5184 6725 5020 6687 4793 6668C 4499 6643 4200 6691 3915 6807C 3371 7028 2946 7499 2785 8060C 2725 8270 2715 8348 2715 8615C 2716 8836 2718 8865 2743 8981C 2855 9508 3149 9946 3585 10233C 3762 10349 4022 10460 4222 10504C 4431 10550 4689 10562 4894 10535z" stroke="none" fill="#FFFFFF" fill-rule="nonzero" />
		</g>
	</g>
</g>
</svg>